{
    "asset" : {
        "generator" : "Khronos glTF Blender I/O v1.4.40",
        "version" : "2.0"
    },
    "scene" : 0,
    "scenes" : [
        {
            "name" : "Scene",
            "nodes" : [
                6,
                7
            ]
        }
    ],
    "nodes" : [
        {
            "mesh" : 0,
            "name" : "Object_4"
        },
        {
            "mesh" : 1,
            "name" : "Object_5"
        },
        {
            "mesh" : 2,
            "name" : "Object_6"
        },
        {
            "children" : [
                0,
                1,
                2
            ],
            "name" : "node-0_0"
        },
        {
            "children" : [
                3
            ],
            "name" : "GLTF_SceneRootNode",
            "rotation" : [
                0.7071068286895752,
                0,
                0,
                0.7071068286895752
            ]
        },
        {
            "children" : [
                4
            ],
            "name" : "root"
        },
        {
            "children" : [
                5
            ],
            "name" : "Sketchfab_model",
            "rotation" : [
                -0.5004067420959473,
                0.49959295988082886,
                0.49959295988082886,
                0.5004067420959473
            ],
            "translation" : [
                0.21056652069091797,
                0,
                7.136700630187988
            ]
        },
        {
            "name" : "Camera",
            "rotation" : [
                0.19473415613174438,
                0.7898332476615906,
                -0.4893290400505066,
                0.3143233060836792
            ],
            "translation" : [
                7.148324966430664,
                4.958309173583984,
                -0.21090960502624512
            ]
        }
    ],
    "materials" : [
        {
            "doubleSided" : true,
            "name" : "01___Default",
            "pbrMetallicRoughness" : {
                "baseColorFactor" : [
                    0.694100022315979,
                    0.513700008392334,
                    0.2313999980688095,
                    1
                ],
                "metallicFactor" : 0,
                "roughnessFactor" : 0.9699479937553406
            }
        },
        {
            "doubleSided" : true,
            "name" : "02___Default",
            "pbrMetallicRoughness" : {
                "baseColorFactor" : [
                    0.21960000693798065,
                    0.015699999406933784,
                    0.015699999406933784,
                    1
                ],
                "metallicFactor" : 0,
                "roughnessFactor" : 0.9699479937553406
            }
        },
        {
            "doubleSided" : true,
            "name" : "03___Default",
            "pbrMetallicRoughness" : {
                "baseColorFactor" : [
                    0.050999999046325684,
                    0.050999999046325684,
                    0.050999999046325684,
                    1
                ],
                "metallicFactor" : 0,
                "roughnessFactor" : 0.9699479937553406
            }
        }
    ],
    "meshes" : [
        {
            "name" : "Object_0",
            "primitives" : [
                {
                    "attributes" : {
                        "POSITION" : 0,
                        "NORMAL" : 1,
                        "TEXCOORD_0" : 2
                    },
                    "indices" : 3,
                    "material" : 0
                }
            ]
        },
        {
            "name" : "Object_1",
            "primitives" : [
                {
                    "attributes" : {
                        "POSITION" : 4,
                        "NORMAL" : 5,
                        "TEXCOORD_0" : 6
                    },
                    "indices" : 7,
                    "material" : 1
                }
            ]
        },
        {
            "name" : "Object_2",
            "primitives" : [
                {
                    "attributes" : {
                        "POSITION" : 8,
                        "NORMAL" : 9,
                        "TEXCOORD_0" : 10
                    },
                    "indices" : 11,
                    "material" : 2
                }
            ]
        }
    ],
    "accessors" : [
        {
            "bufferView" : 0,
            "componentType" : 5126,
            "count" : 7659,
            "max" : [
                111.68049621582031,
                141.93150329589844,
                78.5802001953125
            ],
            "min" : [
                -93.1990966796875,
                0.2515000104904175,
                -129.8542022705078
            ],
            "type" : "VEC3"
        },
        {
            "bufferView" : 1,
            "componentType" : 5126,
            "count" : 7659,
            "type" : "VEC3"
        },
        {
            "bufferView" : 2,
            "componentType" : 5126,
            "count" : 7659,
            "type" : "VEC2"
        },
        {
            "bufferView" : 3,
            "componentType" : 5123,
            "count" : 8817,
            "type" : "SCALAR"
        },
        {
            "bufferView" : 4,
            "componentType" : 5126,
            "count" : 246,
            "max" : [
                74.55829620361328,
                169.37879943847656,
                48.735599517822266
            ],
            "min" : [
                5.98360013961792,
                -2.748500108718872,
                -22.497900009155273
            ],
            "type" : "VEC3"
        },
        {
            "bufferView" : 5,
            "componentType" : 5126,
            "count" : 246,
            "type" : "VEC3"
        },
        {
            "bufferView" : 6,
            "componentType" : 5126,
            "count" : 246,
            "type" : "VEC2"
        },
        {
            "bufferView" : 7,
            "componentType" : 5123,
            "count" : 348,
            "type" : "SCALAR"
        },
        {
            "bufferView" : 8,
            "componentType" : 5126,
            "count" : 560,
            "max" : [
                6.496699810028076,
                170.5933074951172,
                -21.69610023498535
            ],
            "min" : [
                5.258500099182129,
                134.2299041748047,
                -22.9153995513916
            ],
            "type" : "VEC3"
        },
        {
            "bufferView" : 9,
            "componentType" : 5126,
            "count" : 560,
            "type" : "VEC3"
        },
        {
            "bufferView" : 10,
            "componentType" : 5126,
            "count" : 560,
            "type" : "VEC2"
        },
        {
            "bufferView" : 11,
            "componentType" : 5123,
            "count" : 636,
            "type" : "SCALAR"
        }
    ],
    "bufferViews" : [
        {
            "buffer" : 0,
            "byteLength" : 91908,
            "byteOffset" : 0
        },
        {
            "buffer" : 0,
            "byteLength" : 91908,
            "byteOffset" : 91908
        },
        {
            "buffer" : 0,
            "byteLength" : 61272,
            "byteOffset" : 183816
        },
        {
            "buffer" : 0,
            "byteLength" : 17634,
            "byteOffset" : 245088
        },
        {
            "buffer" : 0,
            "byteLength" : 2952,
            "byteOffset" : 262724
        },
        {
            "buffer" : 0,
            "byteLength" : 2952,
            "byteOffset" : 265676
        },
        {
            "buffer" : 0,
            "byteLength" : 1968,
            "byteOffset" : 268628
        },
        {
            "buffer" : 0,
            "byteLength" : 696,
            "byteOffset" : 270596
        },
        {
            "buffer" : 0,
            "byteLength" : 6720,
            "byteOffset" : 271292
        },
        {
            "buffer" : 0,
            "byteLength" : 6720,
            "byteOffset" : 278012
        },
        {
            "buffer" : 0,
            "byteLength" : 4480,
            "byteOffset" : 284732
        },
        {
            "buffer" : 0,
            "byteLength" : 1272,
            "byteOffset" : 289212
        }
    ],
    "buffers" : [
        {
            "byteLength" : 290484,
            "uri" : "data:application/octet-stream;base64,"
        }
    ]
}
