{
    "asset" : {
        "generator" : "Khronos glTF Blender I/O v1.4.40",
        "version" : "2.0"
    },
    "scene" : 0,
    "scenes" : [
        {
            "name" : "Scene",
            "nodes" : [
                0,
                1,
                3
            ]
        }
    ],
    "nodes" : [
        {
            "name" : "Light",
            "rotation" : [
                0.16907575726509094,
                0.7558803558349609,
                -0.27217137813568115,
                0.570947527885437
            ],
            "translation" : [
                4.076245307922363,
                5.903861999511719,
                -1.0054539442062378
            ]
        },
        {
            "name" : "Camera",
            "rotation" : [
                0.483536034822464,
                0.33687159419059753,
                -0.20870360732078552,
                0.7804827094078064
            ],
            "translation" : [
                7.358891487121582,
                4.958309173583984,
                6.925790786743164
            ]
        },
        {
            "mesh" : 0,
            "name" : "pTorus1.001"
        },
        {
            "children" : [
                2
            ],
            "mesh" : 1,
            "name" : "pTorus1",
            "rotation" : [
                0.7071067690849304,
                0,
                0,
                0.7071068286895752
            ],
            "scale" : [
                40,
                40,
                40
            ],
            "translation" : [
                0,
                0.38252750039100647,
                0
            ]
        }
    ],
    "materials" : [
        {
            "doubleSided" : true,
            "name" : "blinn2",
            "pbrMetallicRoughness" : {
                "roughnessFactor" : 0.5527864098548889
            }
        },
        {
            "doubleSided" : true,
            "name" : "blinn1",
            "pbrMetallicRoughness" : {
                "baseColorFactor" : [
                    1,
                    0,
                    0,
                    1
                ],
                "roughnessFactor" : 0.5527864098548889
            }
        }
    ],
    "meshes" : [
        {
            "name" : "pTorus1.001",
            "primitives" : [
                {
                    "attributes" : {
                        "POSITION" : 0,
                        "NORMAL" : 1,
                        "TEXCOORD_0" : 2
                    },
                    "indices" : 3,
                    "material" : 0
                }
            ]
        },
        {
            "name" : "pTorus1",
            "primitives" : [
                {
                    "attributes" : {
                        "POSITION" : 4,
                        "NORMAL" : 5,
                        "TEXCOORD_0" : 6
                    },
                    "indices" : 3,
                    "material" : 1
                }
            ]
        }
    ],
    "accessors" : [
        {
            "bufferView" : 0,
            "componentType" : 5126,
            "count" : 820,
            "max" : [
                2.389014720916748,
                2.389014720916748,
                0.39510577917099
            ],
            "min" : [
                -2.389014720916748,
                -2.389014482498169,
                -0.39510565996170044
            ],
            "type" : "VEC3"
        },
        {
            "bufferView" : 1,
            "componentType" : 5126,
            "count" : 820,
            "type" : "VEC3"
        },
        {
            "bufferView" : 2,
            "componentType" : 5126,
            "count" : 820,
            "type" : "VEC2"
        },
        {
            "bufferView" : 3,
            "componentType" : 5123,
            "count" : 3840,
            "type" : "SCALAR"
        },
        {
            "bufferView" : 4,
            "componentType" : 5126,
            "count" : 820,
            "max" : [
                2.2071619033813477,
                2.2071614265441895,
                0.39510577917099
            ],
            "min" : [
                -2.2071614265441895,
                -2.2071619033813477,
                -0.39510565996170044
            ],
            "type" : "VEC3"
        },
        {
            "bufferView" : 5,
            "componentType" : 5126,
            "count" : 820,
            "type" : "VEC3"
        },
        {
            "bufferView" : 6,
            "componentType" : 5126,
            "count" : 820,
            "type" : "VEC2"
        }
    ],
    "bufferViews" : [
        {
            "buffer" : 0,
            "byteLength" : 9840,
            "byteOffset" : 0
        },
        {
            "buffer" : 0,
            "byteLength" : 9840,
            "byteOffset" : 9840
        },
        {
            "buffer" : 0,
            "byteLength" : 6560,
            "byteOffset" : 19680
        },
        {
            "buffer" : 0,
            "byteLength" : 7680,
            "byteOffset" : 26240
        },
        {
            "buffer" : 0,
            "byteLength" : 9840,
            "byteOffset" : 33920
        },
        {
            "buffer" : 0,
            "byteLength" : 9840,
            "byteOffset" : 43760
        },
        {
            "buffer" : 0,
            "byteLength" : 6560,
            "byteOffset" : 53600
        }
    ],
    "buffers" : [
        {
            "byteLength" : 60160,
            "uri" : "data:application/octet-stream;base64,"
        }
    ]
}
