{
    "asset" : {
        "generator" : "Khronos glTF Blender I/O v1.4.40",
        "version" : "2.0"
    },
    "scene" : 0,
    "scenes" : [
        {
            "name" : "Scene",
            "nodes" : [
                8,
                9,
                10
            ]
        }
    ],
    "nodes" : [
        {
            "mesh" : 0,
            "name" : "Totem_3_Material #48_0"
        },
        {
            "children" : [
                0
            ],
            "name" : "Totem_3",
            "rotation" : [
                -0.4981721341609955,
                0.5018212199211121,
                0.5018212199211121,
                0.4981721341609955
            ],
            "translation" : [
                2.4279136657714844,
                208.6995849609375,
                -2.361687421798706
            ]
        },
        {
            "mesh" : 1,
            "name" : "Totem_3_Stand_Material #48_0"
        },
        {
            "children" : [
                2
            ],
            "name" : "Totem_3_Stand",
            "translation" : [
                1.176733136177063,
                106.16459655761719,
                0.904150128364563
            ]
        },
        {
            "children" : [
                1,
                3
            ],
            "name" : "Totem_3_Left"
        },
        {
            "children" : [
                4
            ],
            "name" : "RootNode"
        },
        {
            "children" : [
                5
            ],
            "name" : "0dde6a2e41734324a17f8f22e2699148.fbx",
            "rotation" : [
                0.7071068286895752,
                0,
                0,
                0.7071068286895752
            ]
        },
        {
            "children" : [
                6
            ],
            "name" : "RootNode (model correction matrix)"
        },
        {
            "children" : [
                7
            ],
            "name" : "RootNode (gltf orientation matrix)",
            "rotation" : [
                -0.7071068286895752,
                0,
                0,
                0.7071068286895752
            ]
        },
        {
            "name" : "Light",
            "rotation" : [
                0.16907575726509094,
                0.7558803558349609,
                -0.27217137813568115,
                0.570947527885437
            ],
            "translation" : [
                4.076245307922363,
                5.903861999511719,
                -1.0054539442062378
            ]
        },
        {
            "name" : "Camera",
            "rotation" : [
                0.483536034822464,
                0.33687159419059753,
                -0.20870360732078552,
                0.7804827094078064
            ],
            "translation" : [
                7.358891487121582,
                4.958309173583984,
                6.925790786743164
            ]
        }
    ],
    "materials" : [
        {
            "doubleSided" : true,
            "name" : "Material_48",
            "pbrMetallicRoughness" : {
                "baseColorTexture" : {
                    "index" : 0,
                    "texCoord" : 0
                },
                "metallicFactor" : 0,
                "roughnessFactor" : 0.8320541977882385
            }
        },
        {
            "doubleSided" : true,
            "name" : "Material_48_0",
            "pbrMetallicRoughness" : {
                "baseColorTexture" : {
                    "index" : 1,
                    "texCoord" : 0
                },
                "metallicFactor" : 0,
                "roughnessFactor" : 0.8320541977882385
            }
        }
    ],
    "meshes" : [
        {
            "name" : "Totem_3_Material #48_0",
            "primitives" : [
                {
                    "attributes" : {
                        "POSITION" : 0,
                        "NORMAL" : 1,
                        "TEXCOORD_0" : 2,
                        "TEXCOORD_1" : 3
                    },
                    "indices" : 4,
                    "material" : 0
                }
            ]
        },
        {
            "name" : "Totem_3_Stand_Material #48_0",
            "primitives" : [
                {
                    "attributes" : {
                        "POSITION" : 5,
                        "NORMAL" : 6,
                        "TEXCOORD_0" : 7,
                        "TEXCOORD_1" : 8
                    },
                    "indices" : 9,
                    "material" : 1
                }
            ]
        }
    ],
    "textures" : [
        {
            "sampler" : 0,
            "source" : 0
        },
        {
            "sampler" : 0,
            "source" : 0
        }
    ],
    "images" : [
        {
            "bufferView" : 5,
            "mimeType" : "image/jpeg",
            "name" : "Material_48_baseColor"
        }
    ],
    "accessors" : [
        {
            "bufferView" : 0,
            "componentType" : 5126,
            "count" : 1398,
            "max" : [
                71.92522430419922,
                72.5523452758789,
                304.112548828125
            ],
            "min" : [
                -71.88453674316406,
                -72.10382080078125,
                0.012479393742978573
            ],
            "type" : "VEC3"
        },
        {
            "bufferView" : 1,
            "componentType" : 5126,
            "count" : 1398,
            "type" : "VEC3"
        },
        {
            "bufferView" : 2,
            "componentType" : 5126,
            "count" : 1398,
            "type" : "VEC2"
        },
        {
            "bufferView" : 3,
            "componentType" : 5126,
            "count" : 1398,
            "type" : "VEC2"
        },
        {
            "bufferView" : 4,
            "componentType" : 5123,
            "count" : 7164,
            "type" : "SCALAR"
        },
        {
            "bufferView" : 6,
            "componentType" : 5126,
            "count" : 161,
            "max" : [
                71.87073516845703,
                103.58946228027344,
                71.87073516845703
            ],
            "min" : [
                -71.87073516845703,
                -103.58946228027344,
                -71.87073516845703
            ],
            "type" : "VEC3"
        },
        {
            "bufferView" : 7,
            "componentType" : 5126,
            "count" : 161,
            "type" : "VEC3"
        },
        {
            "bufferView" : 8,
            "componentType" : 5126,
            "count" : 161,
            "type" : "VEC2"
        },
        {
            "bufferView" : 9,
            "componentType" : 5126,
            "count" : 161,
            "type" : "VEC2"
        },
        {
            "bufferView" : 10,
            "componentType" : 5123,
            "count" : 480,
            "type" : "SCALAR"
        }
    ],
    "bufferViews" : [
        {
            "buffer" : 0,
            "byteLength" : 16776,
            "byteOffset" : 0
        },
        {
            "buffer" : 0,
            "byteLength" : 16776,
            "byteOffset" : 16776
        },
        {
            "buffer" : 0,
            "byteLength" : 11184,
            "byteOffset" : 33552
        },
        {
            "buffer" : 0,
            "byteLength" : 11184,
            "byteOffset" : 44736
        },
        {
            "buffer" : 0,
            "byteLength" : 14328,
            "byteOffset" : 55920
        },
        {
            "buffer" : 0,
            "byteLength" : 1398540,
            "byteOffset" : 70248
        },
        {
            "buffer" : 0,
            "byteLength" : 1932,
            "byteOffset" : 1468788
        },
        {
            "buffer" : 0,
            "byteLength" : 1932,
            "byteOffset" : 1470720
        },
        {
            "buffer" : 0,
            "byteLength" : 1288,
            "byteOffset" : 1472652
        },
        {
            "buffer" : 0,
            "byteLength" : 1288,
            "byteOffset" : 1473940
        },
        {
            "buffer" : 0,
            "byteLength" : 960,
            "byteOffset" : 1475228
        }
    ],
    "samplers" : [
        {
            "magFilter" : 9729,
            "minFilter" : 9986
        }
    ],
    "buffers" : [
        {
            "byteLength" : 1476188,
            "uri" : "data:application/octet-stream;base64,"
        }
    ]
}
